HIERARCHY
ROOT Hips
{
	OFFSET	0.00	0.00	0.00
	CHANNELS 6 Xposition Yposition Zposition Zrotation Xrotation Yrotation
	JOINT LeftUpLeg
	{
		OFFSET	 0.126116	-0.014019	-0.065224
		CHANNELS 3 Zrotation Xrotation Yrotation
		JOINT LeftLeg
		{
			OFFSET	 0.000000	 0.000000	 0.569914
			CHANNELS 3 Zrotation Xrotation Yrotation
			JOINT LeftFoot
			{
				OFFSET	 0.000000	 0.000000	 0.544423
				CHANNELS 3 Zrotation Xrotation Yrotation
				JOINT LeftToeBase
				{
					OFFSET	 0.000000	 0.000000	 0.207117
					CHANNELS 3 Zrotation Xrotation Yrotation
					End Site
					{
						OFFSET	 0.000000	 0.000000	 0.207117
					}
				}
			}
		}
	}
	JOINT RightUpLeg
	{
		OFFSET	-0.124023	-0.008373	-0.065224
		CHANNELS 3 Zrotation Xrotation Yrotation
		JOINT RightLeg
		{
			OFFSET	 0.000000	 0.000000	 0.570047
			CHANNELS 3 Zrotation Xrotation Yrotation
			JOINT RightFoot
			{
				OFFSET	 0.000000	 0.000000	 0.544354
				CHANNELS 3 Zrotation Xrotation Yrotation
				JOINT RightToeBase
				{
					OFFSET	 0.000000	 0.000000	 0.207540
					CHANNELS 3 Zrotation Xrotation Yrotation
					End Site
					{
						OFFSET	 0.000000	 0.000000	 0.207540
					}
				}
			}
		}
	}
	JOINT Spine
	{
		OFFSET	 0.000184	-0.007763	 0.117403
		CHANNELS 3 Zrotation Xrotation Yrotation
		JOINT Spine1
		{
			OFFSET	 0.000000	 0.000000	 0.137269
			CHANNELS 3 Zrotation Xrotation Yrotation
			JOINT Spine2
			{
				OFFSET	 0.000000	 0.000000	 0.156879
				CHANNELS 3 Zrotation Xrotation Yrotation
				JOINT LeftShoulder
				{
					OFFSET	 0.080501	-0.002496	 0.160144
					CHANNELS 3 Zrotation Xrotation Yrotation
					JOINT LeftArm
					{
						OFFSET	 0.000000	 0.000000	 0.164363
						CHANNELS 3 Zrotation Xrotation Yrotation
						JOINT LeftForeArm
						{
							OFFSET	 0.000000	 0.000000	 0.364576
							CHANNELS 3 Zrotation Xrotation Yrotation
							JOINT LeftHand
							{
								OFFSET	 0.000000	 0.000000	 0.360812
								CHANNELS 3 Zrotation Xrotation Yrotation
								JOINT LeftHandIndex1
								{
									OFFSET	 0.000000	 0.000000	 0.086006
									CHANNELS 3 Zrotation Xrotation Yrotation
									JOINT LeftHandIndex2
									{
										OFFSET	 0.000000	 0.000000	 0.047236
										CHANNELS 3 Zrotation Xrotation Yrotation
										JOINT LeftHandIndex3
										{
											OFFSET	-0.004284	-0.000551	 0.038166
											CHANNELS 3 Zrotation Xrotation Yrotation
											End Site
											{
												OFFSET	-0.004284	-0.000551	 0.038166
											}
										}
									}
								}
							}
						}
					}
				}
				JOINT Neck
				{
					OFFSET	 0.000000	 0.000000	 0.176489
					CHANNELS 3 Zrotation Xrotation Yrotation
					JOINT Head
					{
						OFFSET	 0.000000	-0.001747	 0.077940
						CHANNELS 3 Zrotation Xrotation Yrotation
						End Site
						{
							OFFSET	 0.000000	-0.001747	 0.077940
						}
					}
				}
				JOINT RightShoulder
				{
					OFFSET	-0.080363	 0.000306	 0.159706
					CHANNELS 3 Zrotation Xrotation Yrotation
					JOINT RightArm
					{
						OFFSET	 0.000000	 0.000000	 0.164196
						CHANNELS 3 Zrotation Xrotation Yrotation
						JOINT RightForeArm
						{
							OFFSET	 0.000000	 0.000000	 0.365611
							CHANNELS 3 Zrotation Xrotation Yrotation
							JOINT RightHand
							{
								OFFSET	 0.000000	 0.000000	 0.360648
								CHANNELS 3 Zrotation Xrotation Yrotation
								JOINT RightHandIndex1
								{
									OFFSET	 0.000000	 0.000000	 0.069977
									CHANNELS 3 Zrotation Xrotation Yrotation
									JOINT RightHandIndex2
									{
										OFFSET	 0.000000	 0.000000	 0.052305
										CHANNELS 3 Zrotation Xrotation Yrotation
										JOINT RightHandIndex3
										{
											OFFSET	 0.009002	-0.000782	 0.042196
											CHANNELS 3 Zrotation Xrotation Yrotation
											End Site
											{
												OFFSET	 0.009002	-0.000782	 0.042196
											}
										}
									}
								}
							}
						}
					}
				}
			}
		}
	}
}
MOTION
Frames:    11
Frame Time: 0.03333334
 0.000296	 0.019676	 1.271816	-0.003190	 0.003299	 0.172960	 0.353590	-1.724195	 177.532300	 1.475009	-11.816550	-0.689610	-7.500598	 70.885470	 1.416408	-2.385833	 28.452760	 0.000004	-0.519276	-1.787394	-177.821800	-1.465912	-11.453020	 0.655531	 7.146295	 70.554500	-1.236724	 2.384658	 28.388730	 0.000004	-7.233631	 2.717050	 0.301292	-2.162285	 3.685127	-0.810907	 6.546309	-4.521925	 1.410552	-91.776160	 78.527470	 180.000000	 46.407950	 36.427780	-63.166390	-9.951287	 0.223757	-1.419987	-33.030320	-21.105340	-5.376617	-2.635965	 4.993658	 6.788941	-5.165319	 0.784187	 3.516649	-5.225038	 0.466231	 0.424329	-0.000002	-3.783157	-0.089647	 6.371992	 4.618282	-0.257221	 89.782150	 78.203890	 180.000000	-63.761480	 41.852030	 57.218710	 9.638875	 4.085311	 9.506449	 34.153130	-21.587210	 10.316700	 6.112037	 4.509576	-0.364401	 4.968462	 1.518543	-9.347576	 5.168945	 0.703820	 2.021906
 0.000301	 0.019629	 1.272631	-0.003085	 0.003491	 0.173496	 0.529641	-1.732437	 177.519200	 1.475037	-11.814280	-0.689472	-7.486117	 70.748310	 1.405306	-2.385833	 28.452760	 0.000004	-0.695569	-1.793429	-177.810400	-1.465964	-11.448250	 0.655251	 7.131224	 70.416630	-1.224586	 2.384658	 28.388730	 0.000004	-10.144260	 2.694960	 0.297939	-2.161261	 3.761642	-0.804904	 6.542822	-4.620584	 1.416374	-91.776260	 78.527420	-180.000000	 46.391250	 36.396880	-63.063120	-11.723570	 0.328156	-2.384638	-35.449820	-24.927600	-6.516673	-2.635965	 4.993658	 6.788941	-5.165319	 0.784187	 3.516649	-5.225038	 0.466231	 0.424329	-0.000002	-3.783157	-0.089647	 6.364638	 4.572568	-0.254378	 89.782060	 78.203850	-180.000000	-63.302470	 41.661020	 58.061670	 11.126850	 4.424551	 10.396530	 36.904820	-25.301460	 11.580010	 6.112037	 4.509576	-0.364401	 4.968462	 1.518543	-9.347576	 5.168945	 0.703820	 2.021906
 0.000307	 0.019579	 1.273554	-0.002973	 0.003711	 0.173931	 0.727443	-1.741210	 177.504700	 1.475080	-11.810620	-0.689253	-7.469584	 70.593700	 1.392602	-2.385833	 28.452760	 0.000004	-0.893599	-1.800095	-177.797500	-1.466035	-11.442580	 0.654917	 7.114264	 70.261600	-1.210943	 2.384658	 28.388730	 0.000004	-13.177640	 2.670179	 0.294117	-2.158810	 3.847453	-0.797721	 6.534977	-4.731525	 1.422064	-91.776210	 78.527470	-180.000000	 46.365760	 36.356840	-62.934480	-13.586880	 0.502843	-3.394684	-38.140480	-28.692910	-8.056751	-2.635965	 4.993658	 6.788941	-5.165319	 0.784187	 3.516649	-5.225038	 0.466231	 0.424329	-0.000002	-3.783157	-0.089647	 6.352481	 4.521726	-0.251065	 89.782070	 78.203900	-180.000000	-62.638310	 41.343150	 58.983960	 12.678090	 5.033998	 11.689570	 39.886680	-28.981860	 13.238210	 6.112037	 4.509576	-0.364401	 4.968462	 1.518543	-9.347576	 5.168945	 0.703820	 2.021906
 0.000314	 0.019527	 1.274527	-0.002844	 0.003951	 0.174297	 0.937843	-1.750792	 177.489300	 1.475120	-11.807130	-0.689043	-7.452158	 70.429510	 1.379339	-2.385833	 28.452760	 0.000004	-1.104235	-1.807679	-177.783700	-1.466091	-11.437440	 0.654615	 7.096465	 70.097240	-1.196758	 2.384658	 28.388730	 0.000004	-16.196220	 2.643862	 0.289894	-2.154703	 3.938587	-0.789511	 6.522015	-4.849638	 1.427073	-91.776250	 78.527450	-180.000000	 46.332200	 36.305960	-62.784150	-15.468360	 0.746963	-4.407607	-41.007680	-32.107010	-9.937867	-2.635965	 4.993658	 6.788941	-5.165319	 0.784187	 3.516649	-5.225038	 0.466231	 0.424329	-0.000002	-3.783157	-0.089647	 6.335116	 4.468334	-0.247418	 89.782130	 78.203920	 180.000000	-61.662880	 40.708980	 59.395650	 13.959160	 6.430252	 14.248130	 43.142940	-32.465560	 15.204610	 6.112037	 4.509576	-0.364401	 4.968462	 1.518543	-9.347576	 5.168945	 0.703820	 2.021906
 0.000318	 0.019483	 1.275388	-0.002726	 0.004160	 0.174449	 1.126802	-1.759018	 177.475800	 1.475174	-11.803100	-0.688801	-7.436290	 70.281660	 1.367255	-2.385833	 28.452760	 0.000004	-1.293317	-1.814490	-177.771200	-1.466143	-11.432780	 0.654342	 7.080566	 69.949680	-1.184097	 2.384658	 28.388730	 0.000004	-18.740140	 2.620294	 0.286061	-2.149694	 4.020181	-0.781626	 6.506358	-4.955690	 1.430618	-91.776170	 78.527430	 180.000000	 46.295190	 36.254940	-62.636140	-17.084960	 1.011991	-5.271537	-43.567020	-34.633750	-11.766000	-2.635965	 4.993658	 6.788941	-5.165319	 0.784187	 3.516649	-5.225038	 0.466231	 0.424329	-0.000002	-3.783157	-0.089647	 6.315564	 4.420925	-0.244034	 89.782170	 78.203890	 179.999900	-60.498390	 40.032710	 59.394550	 14.877580	 8.246044	 17.269370	 46.013640	-35.066590	 17.116760	 6.112037	 4.509576	-0.364401	 4.968462	 1.518543	-9.347576	 5.168945	 0.703820	 2.021906
 0.000322	 0.019443	 1.276265	-0.002605	 0.004376	 0.174538	 1.316998	-1.767222	 177.462200	 1.475224	-11.798830	-0.688545	-7.420347	 70.132810	 1.355165	-2.385833	 28.452760	 0.000004	-1.483641	-1.821429	-177.758600	-1.466199	-11.428140	 0.654068	 7.064595	 69.801210	-1.171423	 2.384658	 28.388730	 0.000004	-21.144250	 2.596643	 0.282066	-2.143394	 4.102084	-0.773270	 6.486746	-5.062400	 1.433290	-91.776180	 78.527430	 180.000000	 46.248420	 36.199380	-62.470630	-18.648280	 1.317658	-6.100852	-46.081120	-36.644230	-13.650710	-2.635965	 4.993658	 6.788941	-5.165319	 0.784187	 3.516649	-5.225038	 0.466231	 0.424329	-0.000002	-3.783157	-0.089647	 6.292157	 4.373799	-0.240534	 89.782210	 78.203900	 179.999900	-59.316860	 39.365240	 60.362660	 15.735920	 9.527458	 19.209160	 48.812390	-37.192480	 19.080720	 6.112037	 4.509576	-0.364401	 4.968462	 1.518543	-9.347576	 5.168945	 0.703820	 2.021906
 0.000325	 0.019404	 1.277160	-0.002473	 0.004602	 0.174464	 1.511631	-1.775514	 177.448400	 1.475280	-11.794090	-0.688260	-7.403932	 69.980310	 1.342768	-2.385833	 28.452760	 0.000004	-1.678374	-1.828689	-177.745600	-1.466249	-11.423630	 0.653803	 7.048318	 69.649480	-1.158576	 2.384658	 28.388730	 0.000004	-23.439280	 2.572518	 0.277942	-2.135634	 4.185589	-0.764216	 6.462664	-5.171490	 1.435041	-91.776200	 78.527470	 180.000000	 46.195560	 36.133790	-62.289700	-20.185590	 1.664694	-6.906531	-48.522740	-38.140810	-15.524130	-2.635965	 4.993658	 6.788941	-5.165319	 0.784187	 3.516649	-5.225038	 0.466231	 0.424329	-0.000002	-3.783157	-0.089647	 6.264343	 4.326203	-0.236860	 89.782130	 78.203890	 180.000000	-58.123650	 38.704210	 62.212420	 16.666530	 10.268610	 20.143230	 51.503570	-38.834990	 21.026970	 6.112037	 4.509576	-0.364401	 4.968462	 1.518543	-9.347576	 5.168945	 0.703820	 2.021906
 0.000329	 0.019362	 1.278105	-0.002328	 0.004847	 0.174248	 1.721582	-1.784296	 177.433700	 1.475350	-11.788580	-0.687929	-7.386196	 69.815710	 1.329413	-2.385833	 28.452760	 0.000004	-1.888389	-1.836812	-177.731500	-1.466303	-11.419230	 0.653544	 7.030942	 69.486110	-1.144935	 2.384658	 28.388730	 0.000004	-25.723000	 2.546611	 0.273409	-2.125778	 4.275273	-0.754027	 6.432179	-5.288974	 1.435862	-91.776170	 78.527490	 180.000000	 46.132760	 36.058710	-62.082540	-21.774450	 2.074026	-7.730514	-50.922330	-39.126900	-17.360730	-2.635965	 4.993658	 6.788941	-5.165319	 0.784187	 3.516649	-5.225038	 0.466231	 0.424329	-0.000002	-3.783157	-0.089647	 6.230017	 4.275610	-0.232802	 89.782130	 78.203890	 180.000000	-56.853540	 37.987430	 64.744950	 17.657930	 10.630870	 20.425260	 54.036450	-40.034310	 22.893630	 6.112037	 4.509576	-0.364401	 4.968462	 1.518543	-9.347576	 5.168945	 0.703820	 2.021906
 0.000332	 0.019324	 1.278902	-0.002204	 0.005058	 0.173953	 1.906570	-1.791884	 177.420900	 1.475416	-11.783340	-0.687616	-7.370473	 69.670570	 1.317639	-2.385833	 28.452760	 0.000004	-2.073359	-1.843966	-177.719000	-1.466349	-11.415300	 0.653313	 7.015657	 69.342250	-1.132968	 2.384658	 28.388730	 0.000004	-27.564800	 2.523902	 0.269341	-2.115825	 4.353889	-0.744612	 6.401450	-5.392222	 1.435598	-91.776110	 78.527420	 179.999900	 46.074210	 35.991580	-61.895670	-23.115030	 2.456911	-8.413580	-52.767090	-39.473770	-18.725860	-2.635965	 4.993658	 6.788941	-5.165319	 0.784187	 3.516649	-5.225038	 0.466231	 0.424329	-0.000002	-3.783157	-0.089647	 6.196010	 4.231650	-0.229147	 89.782140	 78.203870	 180.000000	-55.694920	 37.299030	 66.904620	 18.335070	 10.947260	 20.708930	 55.786720	-40.659300	 24.202910	 6.112037	 4.509576	-0.364401	 4.968462	 1.518543	-9.347576	 5.168945	 0.703820	 2.021906
 0.000334	 0.019277	 1.279779	-0.002061	 0.005299	 0.173401	 2.122135	-1.800601	 177.406300	 1.475493	-11.776890	-0.687227	-7.352124	 69.501280	 1.303923	-2.385833	 28.452760	 0.000004	-2.288874	-1.852648	-177.704300	-1.466396	-11.411290	 0.653079	 6.998000	 69.174900	-1.119225	 2.384658	 28.388730	 0.000004	-29.504300	 2.497568	 0.264605	-2.102711	 4.445058	-0.733226	 6.361042	-5.512254	 1.434165	-91.776180	 78.527470	-180.000000	 46.006000	 35.908040	-61.674100	-24.607300	 2.926008	-9.162839	-54.536930	-39.295640	-19.928400	-2.635965	 4.993658	 6.788941	-5.165319	 0.784187	 3.516649	-5.225038	 0.466231	 0.424329	-0.000002	-3.783157	-0.089647	 6.152001	 4.181221	-0.224802	 89.782160	 78.203900	 179.999900	-54.170250	 36.434660	 68.823980	 18.915310	 11.798600	 21.721850	 57.389200	-40.846540	 25.315750	 6.112037	 4.509576	-0.364401	 4.968462	 1.518543	-9.347576	 5.168945	 0.703820	 2.021906
 0.000337	 0.019234	 1.280552	-0.001909	 0.005533	 0.172790	 2.321948	-1.808567	 177.392700	 1.475572	-11.770560	-0.686847	-7.335092	 69.344220	 1.291255	-2.385833	 28.452760	 0.000004	-2.488631	-1.860847	-177.690700	-1.466439	-11.407790	 0.652872	 6.981710	 69.019960	-1.106603	 2.384658	 28.388730	 0.000004	-31.097920	 2.473310	 0.260121	-2.089117	 4.529033	-0.722174	 6.319200	-5.623127	 1.431673	-91.776200	 78.527470	-180.000000	 45.935000	 35.827690	-61.455040	-25.923490	 3.378496	-9.813764	-55.781800	-38.610080	-20.617950	-2.635965	 4.993658	 6.788941	-5.165319	 0.784187	 3.516649	-5.225038	 0.466231	 0.424329	-0.000002	-3.783157	-0.089647	 6.107022	 4.135252	-0.220700	 89.782050	 78.203870	-180.000000	-52.661900	 35.559940	 70.880410	 19.153740	 12.312390	 22.353480	 58.068210	-40.692740	 25.718080	 6.112037	 4.509576	-0.364401	 4.968462	 1.518543	-9.347576	 5.168945	 0.703820	 2.021906
